{
  "accessors": [
    {
      "bufferView": 2,
      "componentType": 5126,
      "count": 65532,
      "max": [
        463.07809448242188,
        61.482513427734375,
        524.6187744140625
      ],
      "min": [
        -463.13186645507812,
        -65.5494384765625,
        -450.25714111328125
      ],
      "type": "VEC3"
    },
    {
      "bufferView": 2,
      "byteOffset": 786384,
      "componentType": 5126,
      "count": 65532,
      "max": [
        0.99933016300201416,
        0.99999850988388062,
        0.99990880489349365
      ],
      "min": [
        -0.99206942319869995,
        -0.74921655654907227,
        -0.96304035186767578
      ],
      "type": "VEC3"
    },
    {
      "bufferView": 1,
      "componentType": 5126,
      "count": 65532,
      "max": [
        0.99491709470748901,
        0.9961128830909729
      ],
      "min": [
        0.00046108948299661279,
        0.00044810771942138672
      ],
      "type": "VEC2"
    },
    {
      "bufferView": 0,
      "componentType": 5125,
      "count": 302061,
      "max": [
        65531
      ],
      "min": [
        0
      ],
      "type": "SCALAR"
    },
    {
      "bufferView": 2,
      "byteOffset": 1572768,
      "componentType": 5126,
      "count": 65532,
      "max": [
        459.26165771484375,
        57.166923522949219,
        524.40765380859375
      ],
      "min": [
        -449.11703491210938,
        -64.939155578613281,
        -463.017333984375
      ],
      "type": "VEC3"
    },
    {
      "bufferView": 2,
      "byteOffset": 2359152,
      "componentType": 5126,
      "count": 65532,
      "max": [
        0.9998173713684082,
        0.99999803304672241,
        0.99507415294647217
      ],
      "min": [
        -0.99714165925979614,
        -0.97322005033493042,
        -0.96023464202880859
      ],
      "type": "VEC3"
    },
    {
      "bufferView": 1,
      "byteOffset": 524256,
      "componentType": 5126,
      "count": 65532,
      "max": [
        0.99792224168777466,
        0.99887335300445557
      ],
      "min": [
        0.00033962188172154129,
        0.0020022988319396973
      ],
      "type": "VEC2"
    },
    {
      "bufferView": 0,
      "byteOffset": 1208244,
      "componentType": 5125,
      "count": 294108,
      "max": [
        65531
      ],
      "min": [
        0
      ],
      "type": "SCALAR"
    },
    {
      "bufferView": 2,
      "byteOffset": 3145536,
      "componentType": 5126,
      "count": 65532,
      "max": [
        481.44451904296875,
        61.984695434570312,
        524.47698974609375
      ],
      "min": [
        -466.04470825195312,
        -65.619346618652344,
        -467.07278442382812
      ],
      "type": "VEC3"
    },
    {
      "bufferView": 2,
      "byteOffset": 3931920,
      "componentType": 5126,
      "count": 65532,
      "max": [
        0.99634969234466553,
        0.99999898672103882,
        0.99603331089019775
      ],
      "min": [
        -0.9994385838508606,
        -0.81913274526596069,
        -0.99992191791534424
      ],
      "type": "VEC3"
    },
    {
      "bufferView": 1,
      "byteOffset": 1048512,
      "componentType": 5126,
      "count": 65532,
      "max": [
        0.99657678604125977,
        0.99975508451461792
      ],
      "min": [
        0.00027986129862256348,
        0.0004634857177734375
      ],
      "type": "VEC2"
    },
    {
      "bufferView": 0,
      "byteOffset": 2384676,
      "componentType": 5125,
      "count": 256344,
      "max": [
        65531
      ],
      "min": [
        0
      ],
      "type": "SCALAR"
    },
    {
      "bufferView": 2,
      "byteOffset": 4718304,
      "componentType": 5126,
      "count": 65532,
      "max": [
        479.26968383789062,
        61.872993469238281,
        524.78851318359375
      ],
      "min": [
        -471.72775268554688,
        -65.086509704589844,
        -475.19064331054688
      ],
      "type": "VEC3"
    },
    {
      "bufferView": 2,
      "byteOffset": 5504688,
      "componentType": 5126,
      "count": 65532,
      "max": [
        0.99909615516662598,
        0.99999755620956421,
        0.9937511682510376
      ],
      "min": [
        -0.99706214666366577,
        -0.83257836103439331,
        -0.99940913915634155
      ],
      "type": "VEC3"
    },
    {
      "bufferView": 1,
      "byteOffset": 1572768,
      "componentType": 5126,
      "count": 65532,
      "max": [
        0.99957996606826782,
        0.99975234270095825
      ],
      "min": [
        0.0002546813921071589,
        0.00041818618774414062
      ],
      "type": "VEC2"
    },
    {
      "bufferView": 0,
      "byteOffset": 3410052,
      "componentType": 5125,
      "count": 216858,
      "max": [
        65531
      ],
      "min": [
        0
      ],
      "type": "SCALAR"
    },
    {
      "bufferView": 2,
      "byteOffset": 6291072,
      "componentType": 5126,
      "count": 60045,
      "max": [
        481.39651489257812,
        61.984695434570312,
        524.77703857421875
      ],
      "min": [
        -472.274658203125,
        -65.57659912109375,
        -475.21148681640625
      ],
      "type": "VEC3"
    },
    {
      "bufferView": 2,
      "byteOffset": 7011612,
      "componentType": 5126,
      "count": 60045,
      "max": [
        0.99958831071853638,
        0.99999827146530151,
        0.99235332012176514
      ],
      "min": [
        -0.99965280294418335,
        -0.97322005033493042,
        -0.99992191791534424
      ],
      "type": "VEC3"
    },
    {
      "bufferView": 1,
      "byteOffset": 2097024,
      "componentType": 5126,
      "count": 60045,
      "max": [
        0.99963200092315674,
        0.99973922967910767
      ],
      "min": [
        0.0002392995374975726,
        0.0005207061767578125
      ],
      "type": "VEC2"
    },
    {
      "bufferView": 0,
      "byteOffset": 4277484,
      "componentType": 5125,
      "count": 111747,
      "max": [
        60044
      ],
      "min": [
        0
      ],
      "type": "SCALAR"
    }
  ],
  "asset": {
    "extras": {
      "author": "Chris Thompson (https://sketchfab.com/crazy4creativity)",
      "license": "CC-BY-4.0 (http://creativecommons.org/licenses/by/4.0/)",
      "source": "https://sketchfab.com/3d-models/snow-and-ice-covered-ground-76dd7b03864a4812a005b7fadd09a9ee",
      "title": "Snow and Ice Covered Ground"
    },
    "generator": "Sketchfab-10.33.2",
    "version": "2.0"
  },
  "bufferViews": [
    {
      "buffer": 0,
      "byteLength": 4724472,
      "byteOffset": 0,
      "name": "floatBufferViews",
      "target": 34963
    },
    {
      "buffer": 0,
      "byteLength": 2577384,
      "byteOffset": 4724472,
      "byteStride": 8,
      "name": "floatBufferViews",
      "target": 34962
    },
    {
      "buffer": 0,
      "byteLength": 7732152,
      "byteOffset": 7301856,
      "byteStride": 12,
      "name": "floatBufferViews",
      "target": 34962
    }
  ],
  "buffers": [
    {
      "byteLength": 15034008,
      "uri": "scene.bin"
    }
  ],
  "extensionsUsed": [
    "KHR_materials_unlit"
  ],
  "images": [
    {
      "uri": "textures/Material0_baseColor.jpeg"
    }
  ],
  "materials": [
    {
      "doubleSided": true,
      "emissiveFactor": [
        0,
        0,
        0
      ],
      "extensions": {
        "KHR_materials_unlit": {}
      },
      "name": "Material0",
      "pbrMetallicRoughness": {
        "baseColorFactor": [
          1,
          1,
          1,
          1
        ],
        "baseColorTexture": {
          "index": 0,
          "texCoord": 0
        },
        "metallicFactor": 0,
        "roughnessFactor": 1
      }
    }
  ],
  "meshes": [
    {
      "name": "Stereo textured mesh_Material0_0",
      "primitives": [
        {
          "attributes": {
            "NORMAL": 1,
            "POSITION": 0,
            "TEXCOORD_0": 2
          },
          "indices": 3,
          "material": 0,
          "mode": 4
        }
      ]
    },
    {
      "name": "Stereo textured mesh_Material0_0",
      "primitives": [
        {
          "attributes": {
            "NORMAL": 5,
            "POSITION": 4,
            "TEXCOORD_0": 6
          },
          "indices": 7,
          "material": 0,
          "mode": 4
        }
      ]
    },
    {
      "name": "Stereo textured mesh_Material0_0",
      "primitives": [
        {
          "attributes": {
            "NORMAL": 9,
            "POSITION": 8,
            "TEXCOORD_0": 10
          },
          "indices": 11,
          "material": 0,
          "mode": 4
        }
      ]
    },
    {
      "name": "Stereo textured mesh_Material0_0",
      "primitives": [
        {
          "attributes": {
            "NORMAL": 13,
            "POSITION": 12,
            "TEXCOORD_0": 14
          },
          "indices": 15,
          "material": 0,
          "mode": 4
        }
      ]
    },
    {
      "name": "Stereo textured mesh_Material0_0",
      "primitives": [
        {
          "attributes": {
            "NORMAL": 17,
            "POSITION": 16,
            "TEXCOORD_0": 18
          },
          "indices": 19,
          "material": 0,
          "mode": 4
        }
      ]
    }
  ],
  "nodes": [
    {
      "children": [
        1
      ],
      "name": "RootNode (gltf orientation matrix)",
      "rotation": [
        -0.70710678118654746,
        -0,
        -0,
        0.70710678118654757
      ]
    },
    {
      "children": [
        2
      ],
      "matrix": [
        1,
        0,
        0,
        0,
        0,
        0.087250210344791412,
        -0.99618643522262573,
        0,
        0,
        0.99618643522262573,
        0.087250210344791412,
        0,
        0,
        26.351558685302734,
        -20.814382553100586,
        1
      ],
      "name": "RootNode (model correction matrix)"
    },
    {
      "children": [
        3
      ],
      "matrix": [
        1,
        0,
        0,
        0,
        0,
        -1,
        0,
        0,
        0,
        0,
        -1,
        0,
        0,
        0,
        0,
        1
      ],
      "name": "sketchfabTemp.obj.fbx"
    },
    {
      "children": [
        4
      ],
      "name": "RootNode"
    },
    {
      "children": [
        5,
        6,
        7,
        8,
        9
      ],
      "name": "Stereo textured mesh"
    },
    {
      "mesh": 0,
      "name": "Stereo textured mesh_Material0_0"
    },
    {
      "mesh": 1,
      "name": "Stereo textured mesh_Material0_0"
    },
    {
      "mesh": 2,
      "name": "Stereo textured mesh_Material0_0"
    },
    {
      "mesh": 3,
      "name": "Stereo textured mesh_Material0_0"
    },
    {
      "mesh": 4,
      "name": "Stereo textured mesh_Material0_0"
    }
  ],
  "samplers": [
    {
      "magFilter": 9729,
      "minFilter": 9987,
      "wrapS": 10497,
      "wrapT": 10497
    }
  ],
  "scene": 0,
  "scenes": [
    {
      "name": "OSG_Scene",
      "nodes": [
        0
      ]
    }
  ],
  "textures": [
    {
      "sampler": 0,
      "source": 0
    }
  ]
}

